<svg width="851" height="180" viewBox="0 0 851 180" fill="none" xmlns="http://www.w3.org/2000/svg">
<path d="M314.5 5.97998V38.71C314.328 40.4445 313.516 42.0524 312.221 43.2194C310.926 44.3864 309.243 45.0285 307.5 45.02H292C267.15 45.02 247 64.32 247 88.14V173C247 174.831 246.284 176.589 245.003 177.897C243.723 179.206 241.98 179.961 240.15 180H208.85C207.02 179.961 205.277 179.206 203.997 177.897C202.716 176.589 202 174.831 202 173V90C202 66.1305 211.482 43.2387 228.36 26.3604C245.239 9.48214 268.131 0 292 0L305.62 0.189941C305.62 0.189941 309.56 0.21756 310.475 0.636902C311.39 1.05624 312.203 1.66784 312.86 2.42999C313.739 3.42947 314.309 4.66276 314.5 5.97998Z" fill="white"/>
<path fill-rule="evenodd" clip-rule="evenodd" d="M651 141.29V174.02C650.809 175.337 650.239 176.571 649.36 177.57C648.703 178.332 647.89 178.944 646.975 179.363C646.06 179.782 645.066 180 644.06 180H628.5C604.63 180 581.739 170.518 564.86 153.64C547.982 136.761 538.5 113.869 538.5 90V7C538.5 5.16919 539.216 3.41113 540.497 2.10254C541.777 0.793945 543.52 0.0393066 545.35 0H576.65C578.48 0.0393066 580.223 0.793945 581.503 2.10254C582.784 3.41113 583.5 5.16919 583.5 7V22.45H621.49C622.414 22.45 623.329 22.6331 624.183 22.9885C625.036 23.344 625.81 23.865 626.461 24.5215C627.112 25.1777 627.626 25.9565 627.974 26.8127C628.323 27.6689 628.498 28.5857 628.49 29.51V60.45C628.49 62.3064 627.752 64.0869 626.44 65.3997C625.127 66.7124 623.347 67.45 621.49 67.45H583.5V91.8601C583.5 115.68 603.65 134.98 628.5 134.98H644C645.743 134.971 647.426 135.614 648.721 136.781C650.016 137.948 650.828 139.556 651 141.29Z" fill="white"/>
<path d="M761 0C743.2 0 725.799 5.2784 710.999 15.1677C696.198 25.0571 684.663 39.1131 677.851 55.5585C671.039 72.0038 669.257 90.0998 672.729 107.558C676.202 125.016 684.774 141.053 697.36 153.64C709.947 166.226 725.984 174.798 743.442 178.271C760.9 181.743 778.996 179.961 795.442 173.149C811.887 166.337 825.943 154.802 835.832 140.001C845.722 125.201 851 107.8 851 90C851 66.1305 841.518 43.2386 824.64 26.3604C807.761 9.48208 784.87 0 761 0ZM761 135C752.1 135 743.4 132.361 735.999 127.416C728.599 122.471 722.831 115.443 719.425 107.221C716.02 98.9981 715.128 89.9501 716.865 81.2209C718.601 72.4918 722.887 64.4735 729.18 58.1802C735.474 51.8868 743.492 47.601 752.221 45.8646C760.95 44.1283 769.998 45.0195 778.221 48.4254C786.443 51.8314 793.472 57.5991 798.416 64.9993C803.361 72.3995 806 81.0998 806 90C806 101.935 801.259 113.381 792.82 121.82C784.381 130.259 772.935 135 761 135Z" fill="white"/>
<path d="M516.5 7.00006V90.0001C516.5 113.87 507.018 136.761 490.14 153.64C473.261 170.518 450.369 180 426.5 180C402.631 180 379.739 170.518 362.86 153.64C345.982 136.761 336.5 113.87 336.5 90.0001V7.00006C336.5 5.14355 337.238 3.36311 338.55 2.05036C339.863 0.737603 341.643 6.42836e-05 343.5 6.42836e-05H374.45C376.281 -0.000356104 378.039 0.716526 379.347 1.99701C380.656 3.2775 381.411 5.01971 381.45 6.8501V90.0001C381.45 101.935 386.191 113.381 394.63 121.82C403.069 130.259 414.515 135 426.45 135C438.385 135 449.831 130.259 458.27 121.82C466.709 113.381 471.45 101.935 471.45 90.0001V7.00006C471.45 5.14355 472.187 3.36311 473.5 2.05036C474.813 0.737603 476.593 6.42836e-05 478.45 6.42836e-05H509.47C510.392 -0.00388621 511.305 0.174281 512.158 0.524295C513.011 0.874309 513.786 1.38927 514.439 2.03968C515.092 2.69008 515.611 3.46309 515.964 4.31433C516.318 5.16557 516.5 6.07828 516.5 7.00006Z" fill="white"/>
<path fill-rule="evenodd" clip-rule="evenodd" d="M106.699 178.454C101.288 179.469 95.7059 180 90 180C40.2944 180 0 139.706 0 90C0 40.2944 40.2944 0 90 0C139.706 0 180 40.2944 180 90C180 112.342 171.859 132.782 158.382 148.517C152.937 140.937 144.045 136 134 136C117.431 136 104 149.431 104 166C104 170.443 104.966 174.66 106.699 178.454ZM135 90C135 114.853 114.853 135 90 135C65.1472 135 45 114.853 45 90C45 65.1472 65.1472 45 90 45C114.853 45 135 65.1472 135 90Z" fill="white"/>
<circle cx="134" cy="165" r="14" fill="white"/>
</svg>
